<svg xmlns="http://www.w3.org/2000/svg" id="Layer_2" data-name="Layer 2" viewBox="0 0 521.56 334.32"><defs><style>      .cls-1 {        fill: #ce9005;      }      .cls-1, .cls-2, .cls-3, .cls-4, .cls-5 {        stroke-width: 0px;      }      .cls-3 {        fill: #fff;      }      .cls-4 {        fill: #f7bd00;      }      .cls-5 {        fill: #f9bb0d;      }    </style></defs><g id="Layer_1-2" data-name="Layer 1"><g><g><path class="cls-5" d="m327.38,41.81c.15-.38-.05-.88-.49-1.17-3.58-2.59-16.92-9-20.22-10.1-.4-.16-.86-.06-1.06.23-3.32,5.01-.44,6.49.37,7.48.93.75,15.6,10.52,17.28,10.23,1.44-.45,3.41-4.98,4.13-6.69Z"></path><path class="cls-5" d="m300.76,43.36c4.95,8.8,13.6,11.49,14.24,11.65.62.11,4.78-6.06,4.79-6.05-6.59-3.18-15.98-10.57-16-10.51-4.47,3.19-3.02,4.91-3.02,4.9Z"></path><path class="cls-5" d="m327.07,15.4c.42.56.55,1.2.38,1.75-.57,1.87-1.14,3.75-1.71,5.62-.15.5.17,1.09.75,1.41,2.94,1.61,5.86,3.32,8.74,5.12,1.04.65,2.26.45,2.57-.44.77-2.18,1.54-4.35,2.32-6.53.27-.74-.2-1.71-1.09-2.24-4.35-2.62-8.78-5.05-13.26-7.26-.29-.14-.55.09-.37.33.56.74,1.12,1.49,1.68,2.25Z"></path><path class="cls-5" d="m331.01,39.82c1.39-2.3,2.79-4.59,4.21-6.88.18-.29.02-.72-.35-.97-3.65-2.39-7.35-4.62-11.1-6.71,0,0-.46,2.15-1.19,3.85-.74,1.72-1.27,2-7.19-.14-5.94-2.04-4.5-8.35-4.49-8.38-.47-.28-.94-.56-1.42-.84-1.13,2.71-2.25,5.42-3.36,8.13,7.89,3.39,15.64,7.44,23.15,12.12.66.41,1.44.33,1.74-.17Z"></path><path class="cls-5" d="m390,96.19c-.1-.42-.22-.87-.32-1.29-.07-.27-.15-.57-.22-.84-.02-.07-.05-.17-.07-.3,0,0-.02-.02-.02-.05-.02-.07-.05-.15-.07-.22-.12-.32-.25-.69-.37-1.06-.05-.17-.1-.32-.15-.47-.05-.1-.07-.2-.1-.27-.05-.2-.12-.35-.15-.45-.02-.07-.05-.12-.05-.12-8.07-22.53-23.1-42.65-42.65-54.83,19.98,15.74,33.79,34.38,41.29,55.6l-4.88,1.49-.97.3c-7.82-21.09-21.59-39.9-39.56-52.01,18.02,15.3,30.77,32.85,38.07,52.43l-4.88,1.49-.27.07c-7.38-19.88-19.58-36.22-36.81-48.69,16.78,14.56,28.57,30.89,35.33,49.14l-6.51,1.96-.4.12c-6.61-20.57-19.68-37.16-32.28-46.27,14.43,12.85,24.76,28.39,30.7,46.74l-5.67,1.71-1.09.32c-.15-.42-.27-.87-.4-1.31-5.52-16.68-15.08-30.67-28.86-41.61,13.57,13.12,22.85,27.58,27.8,43.37l-5.12,1.53-.59.2c-5.05-14.98-13.86-27.58-26.59-37.6,12.03,11.54,20.4,24.21,25.1,38.05l-5.69,1.71-.82.25c-4.63-12.95-16.59-30.25-23.64-33.37,10.55,10.32,17.92,21.61,22.13,33.81l-5.27,1.58-.17.05c-4.21-11.21-11.41-21.51-21.51-28.74,9.36,8.91,16.02,18.64,20,29.21l-5.99,1.78-.15.05c-3.94-10.22-10.55-19.14-18.74-24.66,7.97,7.67,13.71,16.04,17.23,25.1l-6.06,1.83-.07.02c-3.47-8.59-9.23-16.16-16.66-21.21,6.96,6.61,12.01,13.84,15.13,21.69l-3.69,1.09-.82.25c-1.68-4.21-4.01-8.12-6.83-11.54-.1-.12-.22-.25-.32-.37v-.02c-1.91-2.2-4.03-4.21-6.36-5.92,2.23,2.28,4.21,4.63,5.97,7.03,0,0,.17.25.47.69,0,0,0,0,0,0,2.13,3.35,10.49,18.37,4.63,39.7-.02.1-.05.2-.07.3v.05c-.1.25-.17.49-.25.72-.07.15-.12.32-.2.47-.1.27-.22.54-.32.82-.12.32-.25.67-.4.99-.35.84-.72,1.63-1.11,2.45-.17.37-.35.74-.54,1.09-.17.3-.3.59-.47.89-.32.6-.67,1.17-1,1.75-.07.12-.13.23-.21.35-.27.45-.54.89-.84,1.31-.15.25-.3.49-.47.74-.3.42-.59.87-.92,1.29-.15.22-.32.47-.47.69-.35.42-.69.87-1.04,1.29-.15.2-.3.42-.47.62-.35.42-.74.87-1.11,1.29-.15.17-.3.37-.47.54-.37.42-.79.82-1.19,1.24-.15.17-.32.35-.47.49-.42.42-.84.82-1.29,1.24-.15.15-.3.3-.47.45-.45.4-.89.79-1.36,1.19-.15.12-.3.27-.47.4-.47.4-.97.77-1.44,1.14-.15.12-.3.25-.47.37-.5.37-.99.72-1.51,1.06-.15.12-.3.22-.47.35-.52.35-1.04.67-1.58,1.01-.15.1-.3.2-.45.3-.54.32-1.09.62-1.63.94-.17.1-.32.17-.5.27-.54.3-1.11.59-1.68.87-.17.07-.32.17-.47.25-.59.27-1.19.54-1.76.79-.17.07-.32.15-.49.22-.57.25-1.19.47-1.78.72l-.55.22c-.6.21-1.2.41-1.8.6-.15.05-.32.12-.5.17-.62.2-1.24.37-1.88.54-.17.02-.32.1-.5.12-.64.17-1.26.32-1.91.45-.17.05-.37.1-.54.12-.62.15-1.26.25-1.91.35-.2.05-.37.07-.57.1-.64.1-1.29.17-1.93.25-.2.02-.4.07-.59.1-.64.05-1.29.1-1.93.15-.2,0-.42.03-.64.05-.62.02-1.26.02-1.91.05h-.69c-25.5-.35-46.34-19.58-49.21-44.38-.05-.37-.12-.72-.15-1.09-.02-.52-.07-1.04-.1-1.56-.02-.22-.02-.45-.02-.67-.05-.72-.07-1.41-.07-2.13v-.12c0-.84.02-1.71.07-2.55,0-.3.02-.62.05-.94l.02-.03c1.53-21.46,16.64-39.14,36.76-44.53,4.21-1.34,4.28-7.77,4.28-7.77l-.02.05c.47-2.28.92-4.55,1.34-6.88,1.09-6.16,3.24-10.32,6.16-13.17,1.01-.99,2.05-1.86,3.09-2.6.12-.1.3-.2.45-.3,2.23-1.56,4.48-2.55,6.81-3h0s7.09-.51,6.91-4.91c0-.05-.02-.09-.02-.14.42-1.48.39-3.14.39-3.14-3.2.66-5.62.64-7.28.44v-.83c4.98-.49,7.73-2.21,7.73-2.23-2.15-2.75-3.69-7.91-3.69-7.91,1.81,3.09,4.22,4.94,5.1,6.54.88,1.58,3.72.38,3.72.38-.3.95-3.11,2.69-3.11,2.7.82,1.52-2.16,6.85-2.16,6.85,0,.03,1.7.57,7.31,3.89,5.57,3.39,7.13,1.55,7.65,1.38.53-.2,7.99.76,7.98.81-4.08-3.64-6.72-8.5-6.71-8.5,5.25-4.44,2.7-8.73,2.68-8.73-3.55.95-7.09,2-10.61,3.15-.26-.49-.51-.98-.77-1.46,0-.01,5.59-1.85,9.95-3.03,4.33-1.19,6.54-6.26,6.55-7.35,0-1.09.37-6.83,1.31-8.16.58-.82-.37-2.32-1.21-3.34,0,0,0-.01,0-.02-.8-1.04-.99-1.73-1.03-1.92-.06-.36-.07-.8,0-1.33,0,0,.16-.03.94,1.24l.14.2c.81,1.03,1.62,2.07,2.43,3.12.05.07.12.12.22.16,1,.42,2,.85,2.99,1.29.36.16.78.1,1.02-.13.04-.04.08-.08.12-.13,0,0,0,0,.01-.01,0,0,0,0,0,0,.02-.02.04-.05.07-.07,0,0,.01-.02.02-.02.23-.25.47-.49.7-.74,0,0,0,0,.01-.01.02-.03.05-.05.06-.07.06-.07.12-.13.19-.2,0,0,0,0,.01,0,.56-.52,1.26-1.09,1.88-1.35,0,0-.6,2.14-1.13,2.98,0,0,0,.02,0,.02-.57,1.79-1.76,6.14-1.25,9.11.59,3.36,6.47,4.04,7.73,4.21.15.02.27-.04.32-.15,1.56-3.99,3.15-7.97,4.77-11.96.26-.64.09-1.41-.45-2.05-.41-.49-.82-.97-1.24-1.45-4.89-3.71-9.89-7.14-14.97-10.29-.89-.55-2.04-.78-3.1-.6-11.45,1.93-21.84,11.93-24.49,15.49-2.84,3.72-9.71,4.87-9.71,4.91-2.09.66-4.05,1.23-5.89,1.72-3.18.85-6.55-.45-8.35-3.21-.76-1.17-1.48-2.5-2.17-4.01-1.68-3.74-3.12-7.82-4.31-12.23-.47-1.73-1.49-3.86-2.57-4.53l-.07-.07c-.27-.15-.54-.2-.82-.15-13.54,1.83-26.41,5.77-38.27,11.46-.84.4-1.68.82-2.5,1.24-.02,0-.05.02-.07.02-38.47,19.41-65.8,57.6-69.88,102.53h-.03c-.35,3.94-.52,7.92-.52,11.93-.17,71.22,58.05,129.1,129.44,128.82,70.3-.27,127.88-57.95,128.1-128.28.02-10.87-1.29-21.46-3.81-31.56Z"></path></g><circle class="cls-4" cx="265.04" cy="127.7" r="37.3"></circle><g><path class="cls-1" d="m233.87,26.71c-4.29,1.85-9.02,3.62-13.5,5.89-4.44,2.26-8.77,4.82-12.89,7.61-4.11,2.78-7.91,6.03-11.74,8.99,8.87-11.48,26.07-20.93,38.13-22.5Z"></path><path class="cls-1" d="m232.48,19.33c-4.81,2.07-10.1,4.05-15.11,6.6-4.98,2.53-9.82,5.39-14.44,8.53-4.6,3.12-8.86,6.75-13.15,10.07,9.94-12.85,29.19-23.44,42.7-25.2Z"></path><path class="cls-1" d="m230.01,11.31c-5.45,2.34-11.45,4.59-17.13,7.48-5.64,2.86-11.13,6.12-16.37,9.67-5.22,3.54-10.04,7.65-14.91,11.42,11.27-14.57,33.1-26.58,48.41-28.57Z"></path><path class="cls-1" d="m236.67,34.4c-13,4.5-24.63,11.33-34.94,20.46,8.18-12.72,20.85-17.81,34.94-20.46Z"></path><path class="cls-1" d="m239.42,42.13c-11.7,4.05-22.17,10.2-31.45,18.41,8.3-11.73,18.77-16.03,31.45-18.41Z"></path><path class="cls-1" d="m242.4,49.73c-10.23,3.57-19.96,8.76-28.21,15.81,7.17-8.93,16.94-14.09,28.21-15.81Z"></path><path class="cls-1" d="m244.75,57.61c-9.61,3.16-18.01,7.85-25.54,14.14,4.35-7.37,17.79-14.34,25.54-14.14Z"></path><path class="cls-1" d="m246.84,65.26c-2.6,1.09-5.13,2.03-7.56,3.2-2.4,1.16-4.75,2.46-7.01,3.88-2.24,1.41-4.33,3.04-6.81,4.8,4.65-6.69,14.75-12.24,21.37-11.88Z"></path><path class="cls-1" d="m248.92,73.22c-3.12,1.43-6.32,2.71-9.34,4.33-3,1.61-5.81,3.57-8.7,5.38,4.53-6.03,10.51-9.33,18.04-9.71Z"></path></g><g><path class="cls-1" d="m303.32,225.42c4.19-2.07,8.82-4.09,13.16-6.6,4.32-2.49,8.5-5.27,12.47-8.29,3.96-3,7.58-6.44,11.25-9.6-8.25,11.93-24.92,22.28-36.89,24.49Z"></path><path class="cls-1" d="m300.43,218.13c3.64-1.8,7.67-3.56,11.46-5.74,3.76-2.17,7.4-4.59,10.86-7.21,3.44-2.61,6.6-5.61,9.79-8.36-7.19,10.39-21.7,19.4-32.11,21.32Z"></path><path class="cls-1" d="m305.1,232.72c4.69-2.32,9.87-4.58,14.74-7.39,4.84-2.79,9.52-5.91,13.97-9.28,4.43-3.36,8.49-7.21,12.6-10.76-9.24,13.36-27.91,24.96-41.31,27.42Z"></path><path class="cls-1" d="m306.27,241.13c5.58-2.76,11.75-5.45,17.54-8.79,5.75-3.32,11.33-7.03,16.62-11.04,5.27-4,10.1-8.58,14.99-12.8-11,15.9-33.21,29.69-49.15,32.63Z"></path><path class="cls-1" d="m296.95,210.32c11.08-5.37,21.6-11.36,30.43-20.05-7.75,10.3-18.3,17.42-30.43,20.05Z"></path><path class="cls-1" d="m294.01,202.87c10.03-4.11,19.03-9.79,26.9-17.25-6.69,9.29-15.73,14.94-26.9,17.25Z"></path><path class="cls-1" d="m290.81,195.15c9.01-3.5,16.8-8.41,23.66-14.79-3.78,7.26-16.26,14.59-23.66,14.79Z"></path><path class="cls-1" d="m288.1,187.63c2.53-1.22,5.02-2.3,7.38-3.59,2.34-1.29,4.61-2.71,6.79-4.25,2.16-1.52,4.17-3.27,6.54-5.15-4.29,6.93-14.08,13.01-20.71,13Z"></path><path class="cls-1" d="m285.49,180.01c2.91-1.52,5.89-2.9,8.69-4.6,2.78-1.69,5.36-3.7,8.02-5.57-4.01,5.98-9.55,9.43-16.72,10.17Z"></path></g><g><path class="cls-1" d="m152.53,171.5c7.02,16.57,18.02,30.16,30.19,43.35-16.9-10.98-24.92-25.57-30.19-43.35Z"></path><path class="cls-1" d="m167.71,165.81c2.16,4.14,4.28,8.73,6.88,13.02,2.58,4.26,5.45,8.39,8.55,12.29,3.08,3.89,6.6,7.44,9.84,11.04-12.1-8-22.81-24.45-25.27-36.36Z"></path><path class="cls-1" d="m160.45,167.74c2.42,4.64,4.79,9.77,7.7,14.58,2.89,4.77,6.11,9.39,9.57,13.77,3.45,4.36,7.39,8.33,11.02,12.37-13.55-8.96-25.54-27.38-28.29-40.72Z"></path><path class="cls-1" d="m175.16,162.45c5.45,12.63,14.9,22.62,22.99,33.33-11.01-8.83-19.31-19.47-22.99-33.33Z"></path><path class="cls-1" d="m182.67,159.13c4.91,11.37,12.98,20.32,20.69,30-9.91-7.79-17.38-17.53-20.69-30Z"></path><path class="cls-1" d="m190.06,156.03c4.32,9.94,10.19,18.82,17.82,26.53-9.43-6.49-15.27-15.41-17.82-26.53Z"></path><path class="cls-1" d="m197.71,152.67c3.69,8.93,8.76,16.62,15.29,23.35-7.34-3.63-14.93-15.94-15.29-23.35Z"></path><path class="cls-1" d="m205.17,149.79c1.28,2.51,2.4,4.97,3.75,7.3,1.34,2.31,2.81,4.55,4.39,6.7,1.57,2.13,3.35,4.1,5.29,6.43-7.02-4.14-13.3-13.8-13.43-20.43Z"></path><path class="cls-1" d="m212.74,147.02c1.58,2.87,3.03,5.83,4.79,8.59,1.75,2.74,3.81,5.28,5.74,7.9-6.07-3.89-9.63-9.35-10.52-16.5Z"></path></g><g><path class="cls-3" d="m34.34,306.33l-10.51,13.67h-2.05l-10.27-13.61v26.83H0v-45.15h12.15l10.8,15.29,10.8-15.29h12.09v45.15h-11.5v-26.9Z"></path><path class="cls-3" d="m87.05,333.22h-32.87v-45.15h32.05v10.71h-20.6v6.45h19.43v10.38h-19.43v6.84h21.43v10.77Z"></path><path class="cls-3" d="m126.49,333.22h-32.87v-45.15h32.05v10.71h-20.6v6.45h19.43v10.38h-19.43v6.84h21.43v10.77Z"></path><path class="cls-3" d="m150.67,288.07c14.5,0,21.48,9.8,21.48,22.25s-6.75,22.9-21.48,22.9h-17.61v-45.15h17.61Zm-6.11,34.38h6.11c7.4,0,9.98-6.06,9.98-12.25s-2.88-11.48-9.98-11.48h-6.11v23.74Z"></path><path class="cls-3" d="m198.86,334.32c-13.44,0-22.83-8.58-22.83-23.67s9.39-23.67,22.83-23.67,22.83,8.64,22.83,23.67-9.33,23.67-22.83,23.67Zm0-36.44c-6.63,0-11.21,5.29-11.21,12.77s4.64,12.77,11.21,12.77,11.21-5.29,11.21-12.77-4.4-12.77-11.21-12.77Z"></path><path class="cls-3" d="m267.76,333.22l-12.68-15.87h-6.69v15.87h-5.75v-45.15h16.38c4.3,0,7.75,1.32,10.33,3.97,2.58,2.64,3.87,6.18,3.87,10.61,0,3.83-1.01,7.04-3.02,9.64-2.02,2.6-4.75,4.2-8.19,4.81l12.97,16.13h-7.22Zm-.29-30.38c0-2.79-.76-4.98-2.29-6.55-1.53-1.57-3.64-2.35-6.34-2.35h-10.45v17.61h10.51c2.66,0,4.75-.77,6.28-2.32,1.53-1.55,2.29-3.68,2.29-6.39Z"></path><path class="cls-3" d="m288.36,327.35h22.6v5.87h-28.23v-45.15h27.88v5.8h-22.25v13.55h21.19v5.8h-21.19v14.13Z"></path><path class="cls-3" d="m338.67,334.13c-6.3,0-11.45-2.18-15.44-6.55-3.99-4.36-5.99-9.97-5.99-16.8s2-12.59,6.02-17c4.01-4.41,9.17-6.61,15.47-6.61,5.75,0,10.68,2.15,14.79,6.45l-3.35,4.71c-3.37-3.44-7.2-5.16-11.5-5.16-4.62,0-8.36,1.61-11.24,4.84s-4.31,7.4-4.31,12.51,1.46,9.44,4.37,12.71c2.92,3.27,6.68,4.9,11.3,4.9s8.43-1.66,11.68-4.97l3.4,4.71c-3.91,4.17-8.98,6.26-15.2,6.26Z"></path><path class="cls-3" d="m378.69,334.19c-6.14,0-11.14-2.17-15-6.52-3.85-4.34-5.78-9.98-5.78-16.9s1.95-12.76,5.84-17.13c3.89-4.36,8.99-6.55,15.29-6.55s11.14,2.17,15,6.51c3.85,4.34,5.78,9.98,5.78,16.9s-1.95,12.76-5.84,17.13c-3.89,4.37-8.99,6.55-15.29,6.55Zm-10.74-10.8c2.78,3.29,6.4,4.93,10.86,4.93s8.1-1.63,10.92-4.9c2.82-3.27,4.23-7.48,4.23-12.64s-1.39-9.63-4.17-12.9c-2.78-3.27-6.4-4.9-10.86-4.9s-8.1,1.62-10.92,4.87-4.23,7.47-4.23,12.67,1.39,9.58,4.17,12.87Z"></path><path class="cls-3" d="m433.69,333.22l-12.68-15.87h-6.69v15.87h-5.75v-45.15h16.38c4.3,0,7.75,1.32,10.33,3.97,2.58,2.64,3.87,6.18,3.87,10.61,0,3.83-1.01,7.04-3.02,9.64-2.02,2.6-4.75,4.2-8.19,4.81l12.97,16.13h-7.22Zm-.29-30.38c0-2.79-.76-4.98-2.29-6.55-1.53-1.57-3.64-2.35-6.34-2.35h-10.45v17.61h10.51c2.66,0,4.75-.77,6.28-2.32,1.53-1.55,2.29-3.68,2.29-6.39Z"></path><path class="cls-3" d="m463.86,288.07c6.1,0,11.05,2.06,14.85,6.19,3.79,4.13,5.69,9.55,5.69,16.25s-1.91,12.22-5.72,16.42c-3.82,4.19-8.79,6.29-14.94,6.29h-15.08v-45.15h15.2Zm0,39.28c4.42,0,7.99-1.53,10.71-4.58,2.72-3.05,4.08-7.05,4.08-12s-1.38-9.04-4.14-12.16c-2.76-3.12-6.35-4.68-10.77-4.68h-9.45v33.41h9.57Z"></path><path class="cls-3" d="m505.94,334.13c-6.18,0-11.41-2-15.67-6l2.82-4.71c3.95,3.23,8.26,4.84,12.91,4.84,2.86,0,5.21-.71,7.07-2.13,1.86-1.42,2.79-3.33,2.79-5.74,0-2.11-.77-3.79-2.32-5.06-1.55-1.27-4.18-2.23-7.89-2.87-4.89-.86-8.48-2.27-10.77-4.23-2.29-1.96-3.43-4.65-3.43-8.09,0-3.83,1.4-6.94,4.2-9.35,2.8-2.41,6.31-3.61,10.54-3.61,5.32,0,9.88,1.61,13.68,4.84l-3.11,4.52c-2.82-2.41-6.28-3.61-10.39-3.61-2.66,0-4.86.62-6.6,1.87-1.74,1.25-2.61,2.92-2.61,5.03,0,1.89.76,3.37,2.29,4.42,1.53,1.05,4.13,1.95,7.81,2.68,5.13,1.03,8.79,2.6,11.01,4.71,2.21,2.11,3.32,4.99,3.32,8.64,0,4.26-1.44,7.63-4.31,10.13s-6.64,3.74-11.3,3.74Z"></path></g><path class="cls-2" d="m214.85,123.92v.03s-.05.55-.06.75-.33-.64-.33-.64c0,0,.09-.06.1-.06s.11-.01.11-.01c0,0,.06-.09.05-.1s.12,0,.12,0l.03.03-.02.02Z"></path></g></g></svg>